<?xml version="1.0" standalone="no"?>
<!DOCTYPE svg PUBLIC "-//W3C//DTD SVG 20010904//EN"
 "http://www.w3.org/TR/2001/REC-SVG-20010904/DTD/svg10.dtd">
<svg version="1.0" xmlns="http://www.w3.org/2000/svg"
 width="1732.000000pt" height="1732.000000pt" viewBox="0 0 1732.000000 1732.000000"
 preserveAspectRatio="xMidYMid meet">
<metadata>
Created by potrace 1.14, written by Peter Selinger 2001-2017
</metadata>
<g transform="translate(0.000000,1732.000000) scale(0.100000,-0.100000)"
fill="#000000" stroke="none">
<path d="M9420 17178 c40 -39 200 -181 279 -248 29 -25 67 -58 85 -75 17 -16
47 -43 66 -59 19 -16 73 -64 120 -105 47 -42 117 -103 154 -136 38 -33 74 -64
80 -70 27 -24 262 -230 381 -334 72 -63 148 -130 170 -150 22 -20 71 -63 110
-96 38 -33 76 -67 85 -75 20 -18 59 -53 160 -140 41 -36 82 -72 90 -80 8 -9
123 -110 255 -225 132 -115 247 -216 256 -224 9 -9 29 -27 45 -41 62 -53 285
-249 395 -347 l117 -104 -2 -1641 -1 -1642 -220 -127 c-121 -70 -240 -139
-265 -154 -41 -24 -321 -186 -415 -240 -22 -12 -256 -147 -520 -300 -264 -152
-500 -289 -524 -303 -25 -13 -68 -38 -95 -55 -28 -16 -69 -40 -91 -52 -22 -12
-96 -55 -165 -95 -118 -68 -189 -109 -235 -134 -11 -6 -27 -16 -35 -22 -8 -6
-42 -26 -75 -44 -59 -33 -446 -255 -720 -415 l-140 -81 0 -489 0 -489 230
-133 c127 -74 239 -138 250 -143 11 -5 45 -25 75 -43 l55 -33 3 -357 2 -356
43 -24 c23 -14 155 -90 292 -169 138 -80 270 -157 295 -170 25 -14 77 -44 117
-67 l72 -42 53 29 c29 17 125 72 213 122 88 51 174 101 192 111 17 10 50 29
72 43 22 15 43 26 46 26 2 0 77 43 166 95 89 52 163 95 165 95 2 0 192 110
224 130 8 5 38 21 65 36 28 14 57 32 66 40 8 8 18 14 22 14 5 0 177 98 437
250 52 31 744 430 865 500 17 9 75 43 130 75 55 32 120 69 145 83 25 14 89 52
143 84 55 32 101 58 103 58 2 0 41 22 86 49 220 129 311 181 320 181 5 0 109
-58 231 -129 122 -71 245 -141 272 -156 28 -16 67 -39 87 -52 21 -12 40 -23
43 -23 3 0 22 -11 43 -23 32 -21 247 -146 336 -197 36 -20 244 -140 391 -225
55 -32 156 -90 225 -130 69 -39 213 -123 320 -185 107 -62 211 -122 230 -133
19 -10 107 -61 195 -112 209 -121 221 -128 363 -209 130 -74 119 -62 139 -166
2 -14 20 -104 40 -200 19 -96 37 -186 39 -199 7 -36 85 -423 90 -446 2 -11 7
-33 9 -50 3 -16 8 -37 10 -45 2 -8 7 -31 10 -50 3 -19 8 -42 10 -50 2 -8 7
-31 10 -50 3 -19 26 -134 51 -255 24 -121 47 -231 49 -245 2 -14 16 -81 30
-150 14 -69 28 -138 31 -155 4 -26 98 -495 110 -550 2 -11 7 -33 9 -50 3 -16
8 -37 10 -45 2 -8 7 -28 10 -45 6 -34 12 -69 20 -105 3 -14 7 -36 10 -50 3
-14 7 -36 10 -50 7 -33 14 -69 21 -105 3 -16 30 -154 60 -305 31 -151 58 -286
60 -300 32 -178 32 -176 33 1926 l1 2060 -46 40 c-26 21 -56 47 -68 57 -11 10
-34 28 -49 40 -15 12 -38 31 -51 42 -23 20 -218 180 -345 284 -147 120 -336
275 -341 280 -3 3 -41 35 -85 71 -44 36 -89 73 -100 82 -11 9 -101 83 -200
164 -99 81 -182 150 -185 153 -3 3 -27 24 -55 46 -77 62 -86 69 -99 81 -6 5
-137 113 -291 240 -154 126 -381 313 -504 414 -123 102 -267 220 -320 263 -53
43 -116 95 -140 115 -24 21 -56 47 -70 59 -156 130 -287 233 -297 233 -6 0
-108 -46 -225 -101 -118 -56 -250 -118 -294 -139 -44 -21 -120 -56 -170 -80
-49 -23 -126 -59 -170 -80 -91 -43 -243 -115 -360 -170 -389 -183 -605 -284
-685 -323 -52 -24 -124 -58 -160 -75 -36 -17 -114 -54 -175 -82 -60 -29 -141
-67 -180 -85 -38 -18 -124 -58 -190 -90 -66 -31 -147 -70 -180 -85 -33 -15
-143 -67 -245 -115 -214 -101 -346 -164 -445 -210 -38 -18 -115 -54 -170 -80
-55 -26 -136 -64 -180 -85 -44 -21 -132 -62 -195 -92 -63 -30 -158 -75 -210
-99 -52 -24 -124 -58 -159 -76 -36 -18 -67 -31 -68 -29 -2 2 148 108 334 237
185 129 369 256 407 283 39 27 114 79 166 115 52 36 136 93 185 128 50 34 97
67 105 73 8 6 111 77 227 158 117 81 301 208 408 282 108 74 204 141 213 148
9 7 197 137 417 290 221 152 420 291 443 307 87 61 298 207 337 233 22 15 42
29 45 32 3 3 24 18 48 34 30 21 42 36 43 55 1 23 2 24 7 5 6 -19 20 -12 162
87 85 59 183 127 218 151 34 24 112 78 173 121 60 42 114 77 118 77 11 0 23
29 17 39 -3 4 -8 30 -11 57 -3 27 -9 63 -12 79 -4 17 -7 32 -8 35 -2 12 -16
98 -20 130 -3 19 -7 46 -10 60 -9 44 -24 134 -30 175 -6 40 -21 131 -29 171
-5 24 -13 76 -22 132 -3 20 -12 73 -19 117 -8 44 -17 98 -21 120 -3 22 -21
132 -40 245 -19 113 -37 221 -40 240 -3 19 -7 46 -10 60 -2 14 -6 35 -8 46 -4
22 -12 66 -22 132 -3 20 -18 114 -34 207 -33 195 -32 187 -60 360 -22 137 -27
165 -35 205 -5 31 -25 156 -30 190 -2 14 -6 39 -9 55 -3 17 -8 47 -11 69 -4
21 -9 48 -11 60 -6 29 -25 145 -29 180 -3 15 -7 35 -9 45 -3 9 -8 36 -11 61
-2 25 -7 56 -10 70 -3 14 -7 39 -10 55 -10 69 -45 282 -50 305 -3 14 -10 54
-16 90 -12 78 -17 110 -25 153 -3 17 -7 46 -10 62 -2 17 -6 39 -8 50 -3 11 -6
29 -7 40 -1 11 -5 -14 -8 -55 l-6 -75 -13 70 c-7 39 -15 79 -17 90 -3 15 -100
76 -357 225 -194 111 -362 208 -373 214 -11 6 -23 15 -26 19 -3 5 -9 8 -13 8
-3 -1 -16 5 -29 13 -23 15 -308 179 -387 223 -25 14 -70 40 -100 58 -30 18
-71 42 -90 53 -32 18 -111 63 -197 113 -18 11 -48 27 -65 37 -55 32 -605 350
-743 430 -71 42 -160 93 -197 114 -106 60 -113 64 -518 298 -212 122 -407 235
-435 252 l-50 29 35 -33z"/>
<path d="M7845 17158 c-127 -74 -398 -230 -560 -323 -88 -51 -183 -106 -211
-122 -27 -17 -70 -41 -95 -55 -62 -35 -238 -138 -274 -159 -16 -11 -37 -22
-45 -26 -8 -4 -37 -20 -65 -36 -27 -17 -65 -38 -82 -48 -18 -10 -119 -69 -225
-130 -106 -61 -206 -119 -223 -129 -16 -9 -75 -43 -130 -75 -55 -32 -172 -99
-260 -150 -88 -50 -263 -152 -390 -225 -256 -148 -280 -162 -345 -198 -25 -13
-52 -31 -61 -38 -8 -8 -18 -14 -22 -14 -7 0 -422 -239 -479 -276 -31 -19 -38
-31 -39 -57 -1 -30 -1 -30 -8 -7 -6 21 -9 15 -15 -30 -4 -30 -9 -62 -11 -70
-1 -8 -15 -87 -29 -175 -27 -162 -29 -172 -40 -235 -14 -81 -16 -97 -22 -130
-2 -19 -9 -57 -14 -85 -5 -27 -11 -63 -14 -80 -6 -43 -36 -225 -41 -255 -3
-14 -12 -68 -20 -120 -9 -52 -18 -107 -20 -122 -3 -16 -7 -43 -10 -60 -3 -18
-8 -40 -10 -48 -2 -8 -7 -35 -10 -60 -8 -57 -14 -98 -20 -130 -3 -14 -7 -41
-10 -60 -3 -19 -14 -84 -25 -145 -11 -60 -22 -123 -24 -140 -3 -16 -14 -88
-26 -160 -12 -71 -23 -142 -26 -157 -10 -68 -15 -94 -19 -108 -2 -8 -7 -35
-10 -60 -9 -63 -14 -101 -20 -130 -3 -14 -7 -38 -10 -55 -6 -44 -14 -90 -30
-180 -8 -44 -17 -98 -20 -120 -4 -22 -13 -76 -20 -120 -15 -84 -20 -115 -30
-180 -5 -40 -9 -63 -20 -115 -6 -29 -12 -68 -20 -130 -3 -25 -8 -52 -10 -60
-2 -8 -6 -33 -10 -55 -3 -22 -14 -89 -25 -150 -11 -60 -21 -121 -23 -135 -2
-14 -13 -76 -23 -138 l-18 -112 24 -18 c13 -9 62 -43 109 -75 46 -33 128 -89
180 -125 118 -82 730 -507 751 -522 8 -6 27 -18 42 -28 14 -9 118 -81 230
-159 111 -77 313 -218 448 -311 135 -94 259 -180 275 -191 57 -41 194 -136
275 -191 45 -30 111 -76 148 -102 37 -26 74 -52 82 -58 8 -6 79 -55 157 -110
79 -54 194 -134 256 -177 62 -43 278 -193 480 -333 202 -140 415 -288 473
-327 58 -40 103 -73 101 -73 -5 0 -202 92 -457 213 -52 24 -135 64 -185 87
-49 23 -133 63 -185 87 -91 43 -140 66 -312 147 -43 20 -144 67 -224 106 -81
38 -148 70 -149 70 -2 0 -61 28 -131 61 -71 34 -203 96 -294 139 -207 97 -317
149 -450 213 -96 45 -168 79 -335 157 -33 15 -127 60 -208 99 -81 39 -150 71
-151 71 -2 0 -79 36 -170 80 -92 44 -168 80 -170 80 -2 0 -55 24 -117 54 -63
30 -154 73 -204 97 -49 23 -150 71 -224 106 -73 34 -134 63 -136 63 -1 0 -78
36 -170 80 l-167 81 -71 -58 c-39 -32 -81 -66 -92 -75 -11 -9 -65 -53 -120
-99 -55 -45 -120 -98 -145 -119 -25 -21 -90 -74 -145 -119 -55 -46 -109 -90
-120 -99 -11 -9 -45 -37 -75 -62 -30 -25 -64 -53 -75 -62 -11 -9 -218 -179
-460 -378 -242 -199 -449 -369 -460 -379 -11 -10 -123 -102 -250 -206 -126
-104 -258 -211 -291 -239 -105 -87 -218 -180 -234 -193 -8 -6 -44 -36 -80 -65
-237 -196 -323 -267 -458 -378 l-152 -125 1 -2065 c1 -2115 1 -2124 34 -1920
3 19 7 46 10 60 3 14 7 35 10 48 2 13 6 31 9 40 3 9 7 33 10 52 3 19 8 46 11
60 3 14 8 39 11 55 2 17 9 46 14 65 5 19 11 49 13 65 3 17 14 75 26 130 11 55
22 111 25 125 2 14 38 194 80 400 41 206 77 386 80 400 3 14 19 97 36 185 18
88 34 169 36 180 2 11 7 34 10 50 2 17 9 46 14 65 5 19 11 49 13 65 3 17 19
100 37 185 18 85 34 169 37 185 2 17 13 68 23 115 10 47 21 101 24 120 9 57
16 93 26 130 5 19 11 53 15 75 3 22 10 56 15 75 5 19 11 53 15 75 3 22 12 68
20 102 8 35 17 78 20 96 5 30 18 96 20 107 2 9 18 84 21 105 2 11 11 57 21
102 16 79 18 82 57 104 23 12 66 37 96 54 30 18 143 83 250 145 107 62 224
129 260 150 61 36 739 427 812 468 18 11 265 153 548 317 283 164 535 309 560
323 25 14 57 33 72 43 14 11 29 19 32 19 3 0 43 23 90 50 47 28 89 50 94 50 5
0 47 -22 93 -48 485 -280 868 -502 1249 -722 895 -516 1187 -685 1354 -782 92
-54 170 -98 173 -98 3 0 17 -8 31 -18 15 -11 52 -33 82 -49 30 -17 164 -93
297 -171 l242 -140 47 25 c25 14 184 104 353 202 168 98 330 191 358 207 l53
29 0 362 0 362 75 45 c42 25 77 46 79 46 2 0 45 25 95 55 51 30 93 55 95 55 2
0 61 34 131 75 69 41 130 75 134 75 4 0 8 222 8 493 0 490 0 493 -21 503 -12
6 -102 58 -201 116 -99 58 -200 116 -225 130 -25 14 -187 108 -360 208 -332
193 -350 203 -445 257 -33 19 -67 38 -75 43 -14 9 -85 50 -155 90 -16 9 -75
43 -130 75 -55 32 -120 69 -145 83 -25 13 -49 28 -55 32 -5 4 -30 19 -55 32
-25 14 -117 67 -205 118 -88 51 -173 101 -190 110 -16 9 -86 50 -155 90 -69
40 -150 86 -180 103 -30 17 -72 41 -92 54 -21 13 -41 23 -45 23 -3 0 -14 6
-22 14 -14 11 -44 29 -161 93 -14 7 -151 87 -305 176 l-280 163 -1 1641 -2
1641 37 34 c20 19 72 65 116 103 44 38 96 83 115 101 19 17 80 71 135 119 55
49 129 114 165 145 36 32 126 110 200 175 74 65 137 121 140 124 3 3 34 31 70
61 36 30 67 57 70 60 3 3 61 55 130 115 69 60 127 112 130 115 3 3 115 102
250 219 135 118 250 219 255 225 6 6 39 36 75 66 36 30 67 57 70 61 3 3 48 43
100 88 122 107 231 203 410 361 81 72 91 80 169 148 30 26 62 54 71 62 16 15
152 132 159 137 2 2 2 5 0 7 -3 3 -36 -13 -74 -36z"/>
<path d="M8510 12551 c-74 -43 -223 -129 -330 -191 -107 -62 -213 -123 -235
-135 -22 -13 -80 -46 -130 -75 -49 -29 -106 -61 -125 -72 -32 -18 -115 -67
-480 -278 -69 -40 -141 -82 -160 -93 -92 -52 -448 -257 -550 -317 -63 -37
-131 -77 -150 -87 -222 -125 -222 -125 -198 -138 34 -18 594 -342 658 -381 55
-33 55 -33 85 -15 16 10 50 30 75 44 25 13 115 65 200 114 85 50 214 124 285
165 72 41 173 100 225 130 52 30 199 115 325 188 127 73 323 186 436 251 194
112 240 132 254 110 3 -5 29 -23 58 -39 94 -52 150 -84 267 -152 63 -37 137
-80 164 -95 27 -15 162 -93 300 -172 562 -326 958 -554 964 -556 7 -2 213 113
351 195 25 15 52 31 59 34 8 4 85 48 173 99 l159 92 -328 189 c-180 103 -358
207 -397 230 -38 23 -92 54 -120 69 -27 16 -160 92 -295 170 -414 240 -713
412 -750 433 -19 10 -102 59 -185 107 -82 48 -168 97 -190 110 -22 12 -88 50
-146 84 -58 33 -112 61 -120 61 -8 -1 -75 -36 -149 -79z"/>
<path d="M4326 8042 c-2 -4 -3 -658 -3 -1454 0 -1221 2 -1450 14 -1459 14 -12
125 -78 223 -132 30 -16 60 -33 65 -37 6 -4 28 -18 50 -30 22 -12 216 -124
430 -248 215 -124 489 -282 610 -352 121 -70 326 -188 455 -262 129 -75 336
-195 460 -266 l225 -130 3 411 c2 321 -1 414 -10 422 -7 7 -134 82 -283 167
-1148 662 -1491 861 -1499 869 -6 5 -9 421 -9 1048 l0 1040 -116 67 c-431 250
-611 351 -615 346z"/>
<path d="M12624 7838 l-361 -209 0 -1040 c0 -596 -4 -1044 -9 -1049 -8 -7
-169 -102 -294 -172 -25 -14 -128 -74 -230 -133 -102 -59 -203 -117 -225 -130
-22 -12 -191 -110 -375 -217 -184 -107 -342 -197 -350 -201 -8 -4 -82 -46
-165 -95 l-150 -88 -3 -418 -2 -418 32 20 c18 11 54 31 80 45 26 14 116 66
200 115 154 90 453 263 518 299 19 11 85 49 145 85 61 35 135 78 165 95 30 16
181 103 335 193 154 89 341 197 415 240 74 43 216 125 315 182 99 57 214 124
256 148 l76 44 0 1453 c0 800 -3 1455 -6 1457 -3 2 -168 -91 -367 -206z"/>
<path d="M9191 7090 c-46 -28 -85 -50 -87 -50 -1 0 -42 -23 -91 -51 -287 -167
-343 -199 -353 -199 -6 0 -50 23 -98 51 -86 51 -120 71 -197 114 -22 13 -80
47 -130 76 -177 103 -182 105 -213 87 -32 -19 -517 -299 -577 -333 -22 -13
-83 -48 -135 -79 l-95 -55 0 -2012 c0 -1570 -3 -2013 -12 -2016 -7 -3 -27 -14
-45 -27 -30 -20 -63 -39 -198 -114 -24 -14 -84 -49 -133 -78 -49 -30 -91 -54
-93 -54 -2 0 -27 -14 -56 -31 -49 -29 -148 -87 -403 -234 -116 -67 -103 -60
-350 -202 -290 -167 -527 -304 -560 -324 -16 -10 -41 -24 -55 -32 -14 -7 -117
-67 -230 -132 -113 -65 -232 -134 -265 -153 -33 -18 -64 -37 -70 -41 -5 -5
-37 -23 -70 -41 -33 -17 -118 -66 -189 -108 l-129 -76 -201 68 c-111 38 -318
108 -461 156 -143 49 -534 181 -870 295 -821 278 -1238 418 -1495 504 -118 40
-222 75 -230 78 -8 3 -19 7 -25 9 -5 1 -75 25 -155 52 -80 28 -154 53 -165 57
-28 10 63 -44 545 -323 486 -280 721 -416 835 -482 44 -26 100 -58 125 -72 25
-14 86 -49 135 -78 50 -29 106 -61 125 -72 19 -11 76 -44 125 -73 50 -29 110
-63 135 -77 25 -14 128 -74 230 -133 102 -59 203 -117 225 -130 22 -12 112
-64 200 -115 88 -51 176 -102 195 -113 19 -11 49 -28 65 -38 17 -11 37 -22 45
-26 18 -8 208 -119 230 -133 8 -6 22 -13 30 -17 8 -4 58 -32 111 -64 53 -31
125 -72 160 -91 l64 -36 650 243 c358 134 661 248 675 253 14 6 185 70 380
142 195 72 364 135 375 140 11 5 378 143 815 306 437 163 804 300 815 305 11
5 58 22 104 39 106 39 106 38 107 80 2 35 13 183 19 250 2 19 6 76 10 125 4
50 9 101 10 115 2 14 6 66 10 115 4 50 8 106 10 125 2 19 6 73 10 120 3 47 8
101 10 120 2 19 7 73 10 120 4 47 8 101 10 120 2 19 7 73 10 120 4 47 8 101
10 120 2 19 6 69 10 110 3 41 8 95 10 120 2 25 7 83 10 130 4 47 8 101 10 120
2 19 6 71 10 115 3 44 8 100 10 125 2 25 6 79 10 120 3 41 8 93 10 115 2 22 7
74 10 115 6 84 11 143 29 360 3 30 8 89 11 130 3 41 8 95 10 120 3 25 7 77 10
115 3 39 8 95 10 125 3 30 7 84 10 120 3 36 8 92 11 125 9 103 13 147 19 235
3 46 8 103 10 125 4 37 8 84 20 240 3 33 7 83 10 110 2 28 7 88 10 135 4 47 8
96 11 110 2 13 6 69 10 123 3 55 8 107 9 116 2 9 4 38 4 65 2 96 11 40 26
-149 3 -38 8 -90 10 -115 2 -25 7 -81 10 -125 3 -44 8 -98 10 -120 2 -22 7
-76 10 -120 3 -44 8 -96 10 -115 2 -19 7 -73 10 -120 3 -47 8 -103 10 -125 2
-22 7 -76 10 -120 3 -44 8 -96 10 -115 2 -19 7 -73 10 -120 3 -47 8 -103 10
-125 2 -22 7 -76 10 -120 3 -44 7 -100 10 -125 2 -25 7 -76 10 -115 10 -123
17 -206 30 -350 2 -27 7 -86 10 -130 3 -44 8 -100 10 -125 3 -25 7 -74 10
-110 3 -36 7 -90 10 -120 2 -30 7 -86 10 -125 3 -38 8 -92 10 -120 3 -27 7
-81 10 -120 3 -38 7 -92 10 -120 2 -27 7 -81 10 -120 3 -38 8 -88 10 -110 2
-22 7 -80 10 -130 3 -49 8 -106 10 -125 2 -19 7 -71 10 -115 3 -44 8 -98 10
-120 2 -22 7 -74 10 -115 3 -41 8 -95 10 -120 2 -25 7 -76 10 -115 7 -86 11
-133 30 -365 3 -30 7 -80 9 -110 3 -30 8 -91 11 -135 4 -44 10 -83 13 -87 6
-5 606 -231 1002 -378 213 -79 1050 -393 1080 -405 19 -8 150 -57 291 -109
141 -52 267 -100 280 -105 20 -9 380 -143 499 -187 19 -7 198 -74 398 -148
l363 -136 272 156 c150 86 305 176 345 200 40 24 75 44 78 44 2 0 21 11 42 24
20 13 204 120 407 237 388 223 1179 679 1350 779 120 69 408 236 450 260 17 9
72 41 123 71 52 30 110 63 130 75 20 11 108 62 195 112 88 51 163 92 168 92 5
0 9 4 9 8 0 4 -102 -27 -227 -69 -582 -195 -1103 -372 -1253 -424 -91 -31
-172 -58 -180 -60 -8 -2 -235 -79 -505 -170 -269 -92 -528 -180 -575 -195 -47
-15 -258 -87 -469 -159 l-384 -131 -236 136 c-130 75 -249 144 -266 154 -43
25 -821 474 -1550 895 -341 197 -663 382 -715 412 -52 31 -97 57 -100 60 -3 2
-5 910 -5 2016 0 1107 -4 2017 -8 2024 -4 6 -20 18 -35 26 -15 7 -88 49 -162
92 -520 301 -614 355 -622 355 -1 0 -41 -23 -87 -50z"/>
</g>
</svg>
